<svg width="25" height="25" viewBox="0 0 25 25" fill="none" xmlns="http://www.w3.org/2000/svg">
<path fill-rule="evenodd" clip-rule="evenodd" d="M3.21533 11.6389C3.21533 11.3628 3.43919 11.1389 3.71533 11.1389L19.7153 11.1389C19.9915 11.1389 20.2153 11.3628 20.2153 11.6389C20.2153 11.9151 19.9915 12.1389 19.7153 12.1389L3.71533 12.1389C3.43919 12.1389 3.21533 11.9151 3.21533 11.6389Z" fill="white"/>
<path fill-rule="evenodd" clip-rule="evenodd" d="M15.8618 7.78536C16.057 7.5901 16.3736 7.5901 16.5689 7.78536L20.4224 11.6389L16.5689 15.4925C16.3736 15.6877 16.057 15.6877 15.8618 15.4925C15.6665 15.2972 15.6665 14.9806 15.8618 14.7854L19.0082 11.6389L15.8618 8.49247C15.6665 8.29721 15.6665 7.98062 15.8618 7.78536Z" fill="white"/>
</svg>
